PathFileType	4	(X/Y/Z)	Patient4_TMGait_0pt4_03_right_10.trc.trc
DataRate	CameraRate	NumFrames	NumMarkers	Units	OrigDataRate	OrigDataStartFrame	OrigNumFrames
75.268817204301	75.268817204301	6	33	mm	75.268817204301	1	       141
Frame#	Time	Sacral			L.Shoulder			Chest			R.Shoulder			Neck			R.ASIS			L.ASIS			R.Thigh.Superior			R.Thigh.Lateral			R.Thigh.Inferior			R.Patella			L.Thigh.Superior			L.Thigh.Lateral			L.Thigh.Inferior			L.Patella			L.Shank.Superior			L.Shank.Lateral			L.Shank.Inferior			R.Shank.Superior			R.Shank.Lateral			R.Shank.Inferior			R.Heel			R.Midfoot.Superior			R.Midfoot.Lateral			R.Toe			L.Heel			L.Midfoot.Lateral			L.Midfoot.Superior			L.Toe			L.Elbow			L.Wrist			R.Elbow			R.Wrist			
		X1	Y1	Z1	X2	Y2	Z2	X3	Y3	Z3	X4	Y4	Z4	X5	Y5	Z5	X6	Y6	Z6	X7	Y7	Z7	X8	Y8	Z8	X9	Y9	Z9	X10	Y10	Z10	X11	Y11	Z11	X12	Y12	Z12	X13	Y13	Z13	X14	Y14	Z14	X15	Y15	Z15	X16	Y16	Z16	X17	Y17	Z17	X18	Y18	Z18	X19	Y19	Z19	X20	Y20	Z20	X21	Y21	Z21	X22	Y22	Z22	X23	Y23	Z23	X24	Y24	Z24	X25	Y25	Z25	X26	Y26	Z26	X27	Y27	Z27	X28	Y28	Z28	X29	Y29	Z29	X30	Y30	Z30	X31	Y31	Z31	X32	Y32	Z32	X33	Y33	Z33	

1	12.080000000000	804.932028891245	1006.078460470698	442.339529523122	978.110161885583	1430.940337606965	237.547655065865	1087.075164980357	1366.492785241123	396.923227595884	1010.605471086139	1442.458487878358	573.447136483457	964.970164347477	1496.772519588562	394.087100443607	1040.130004897553	946.032536483010	549.323622383330	1014.124730096659	963.758472558793	276.134059522014	1118.849975767048	769.652141233958	520.325654072427	1076.609231644701	649.872556283351	597.664177163976	1164.438557400652	608.093771431626	518.616176822566	1179.994240435831	496.443950428037	541.190095815430	1066.146520139734	752.322705734986	298.394794966246	975.248268100509	636.270560267182	246.288290274753	1063.947853202506	559.453089350306	304.008119670801	1064.654806509819	490.059870114213	314.334488516895	1037.142524114128	417.712433028905	308.481887098402	944.181982817078	304.020085679520	260.601653473859	996.076016042453	192.802589778061	332.090017277798	1103.539178355505	422.505294154828	552.100495234668	984.301641202698	387.044110925930	619.465276248029	964.359387918002	277.709042052971	572.173612743600	761.284722000774	224.233708383622	559.111212901338	928.134704674937	153.792113604291	582.207475212038	821.893914325023	157.476438980796	624.594163265314	989.663017387448	38.553523367479	599.949022670508	868.614305128138	38.751417362984	381.688933800665	938.885947682672	34.799632838254	297.532086688761	1023.005348372374	96.036431454334	321.361772416721	1150.851207695701	43.826720895571	287.660776033028	961.710823626264	1087.252910192754	98.679637108163	1115.239234229509	872.364951399548	98.050049670569	982.957182515706	1095.834806910105	700.936291472675	1057.654292534402	845.169087995267	693.702689399153	
2	12.093285714286	804.063750053818	1006.510226447977	440.399529692648	979.292418129944	1431.600132359190	236.983528884924	1086.482729867662	1367.040263971582	397.392273442628	1008.165631729966	1442.899026988843	573.034843787122	964.533368785842	1497.313353537651	393.558630220017	1038.501329761774	947.133992414105	549.010343088714	1014.203276751835	964.129680370912	275.649039855711	1119.152331634693	772.755416704746	520.325070639417	1078.592965423424	652.590367872193	597.817435477076	1167.020025657635	611.947769110344	518.817773037593	1184.628225953066	500.978016563853	541.555261594525	1064.538731318947	751.780780648425	298.574686500960	972.541522260964	636.333614395091	246.086054070097	1060.189149624063	558.826967966069	304.188603894287	1060.227105201674	489.594272631322	314.615296699726	1032.529786846057	417.440983590767	308.554350519557	939.327184240133	304.010917801452	260.533408146076	990.817120141576	192.699660439338	332.141819895069	1110.150902739912	425.402415915050	552.387161846772	992.365391295360	386.021544400118	619.809427376814	975.993687822872	276.232851472185	572.536587838867	775.055045961023	215.896486347466	559.327386891146	944.449149646290	152.151009340091	583.907199056356	837.810888274351	151.331177760072	624.934710018132	1009.392932669268	38.327451898105	600.454352949910	862.925865116222	38.722690834603	381.621700173019	933.221109278416	34.777681896329	297.470911800815	1017.338014389692	96.016428588815	321.321583619465	1145.204526433967	43.823073366047	287.625179246311	968.785258982429	1088.723007701687	96.447220314108	1128.836869041590	879.066957330194	97.008134800933	971.679577820321	1097.828482790548	700.339897480351	1040.149666745391	845.499974278953	695.258775977906	
3	12.106571428571	803.205137404027	1006.938120057758	438.499637026251	980.489264863826	1432.231246034777	236.441493164468	1085.903546414350	1367.570985531172	397.884836922801	1005.745975460758	1443.338170275538	572.640992516938	964.105344988023	1497.834006539152	393.052868763980	1036.879038474797	948.209194933973	548.742447797462	1014.295983614627	964.482662128913	275.218270978777	1119.392839947684	775.758982116300	520.348437443628	1080.469426191674	655.219550781357	597.992069135680	1169.402796606247	615.648109754723	518.994118174321	1189.024978198755	505.416456956047	541.920371955207	1062.912364681610	751.232729722384	298.860360058413	969.860603090132	636.400936369216	245.899666671601	1056.430705887374	558.206187433966	304.411222878404	1055.793184854582	489.134756725202	314.921801769759	1027.920841726531	417.173199774942	308.646610198641	934.490732511722	303.998493555730	260.477204962469	985.579574212297	192.595997362903	332.201136362514	1116.609217089871	428.195386664143	552.715358836828	1000.375158076269	384.796669563613	620.225675492551	987.699547907918	274.559485590729	572.991101152610	789.033152675490	207.150111409297	559.696921271526	960.935678312191	150.265407095148	585.613567844091	854.001684705789	144.913787481840	625.446717200563	1029.453738693379	38.067298794165	601.109016737409	857.273007799769	38.692223964589	381.558107143088	927.590665547517	34.755334497970	297.412780414405	1011.705288006634	95.997143211478	321.286965821338	1139.591090433095	43.820601287841	287.591968867778	975.771699651531	1090.178307578420	94.269777897868	1142.317443462246	885.804675383949	96.005467559259	960.539947809719	1099.829130752540	699.728975548267	1022.939030221652	845.912822566712	696.728485913127	
4	12.119857142857	802.369580317792	1007.356577243678	436.688130895218	981.712699738087	1432.800931918984	235.953660033586	1085.359447023464	1368.060735790472	398.426169973008	1003.387090580694	1443.767763516323	572.291910134343	963.703033874305	1498.310716909626	392.600815339559	1035.277071134318	949.219776314389	548.568443150687	1014.415906647384	964.796602612451	274.894749923314	1119.482410118994	778.523847024489	520.429490557085	1082.079507003808	657.646682342237	598.227057856376	1171.354575028133	619.009052298369	519.149217377720	1192.907324221122	509.632120194632	542.294637712906	1061.256472423830	750.671629609656	299.330575282842	967.229881167201	636.473928221422	245.745357600108	1052.679007427397	557.594645739758	304.709756156014	1051.355576755936	488.685528106253	315.275650068479	1023.328968061971	416.910510833217	308.775835890237	929.696847409901	303.980394273927	260.442334543484	980.387636769776	192.490299145030	332.273893043225	1122.722759608505	430.781336722919	553.125053926805	1008.270343350894	383.199376012579	620.786602614049	999.518777656021	272.563564650368	573.604821007900	803.450398019351	197.712870345505	560.337439782900	977.734185294084	148.014458884390	587.318786630055	870.727169163683	138.074169063181	626.249496899944	1050.087926721353	37.866156894137	602.007308306205	851.690071825461	38.660367899920	381.500945735657	922.029346631136	34.733240544760	297.360032653792	1006.142317507567	95.978536879891	321.262683420871	1134.044834090767	43.818700680693	287.563650383206	982.578715183371	1091.594260853385	92.220381883205	1155.535077807123	892.603203977826	95.093508120304	949.725959251580	1101.831124535786	699.100093156141	1006.365946376585	846.467693982043	698.029558843698	
5	12.133142857143	801.566998628133	1007.759428866066	435.003413191607	982.975133129200	1433.279926414768	235.550562535810	1084.871026222285	1368.486589408993	399.040269186134	1001.124341599843	1444.178051934474	572.011720075485	963.344478622820	1498.722200956935	392.229301443686	1033.705650917330	950.130921689537	548.532216233462	1014.572875416275	965.051942713823	274.722448360742	1119.334129873164	780.922458472920	520.598258201591	1083.271781462414	659.770737872307	598.560430084432	1172.666426972386	621.866756251397	519.295276458918	1196.032673813911	513.515357297453	542.686692050967	1059.563316686385	750.091103254914	300.040289018711	964.661632605696	636.551996804116	245.636249821610	1048.931131087843	556.993184207826	305.109380483658	1046.907321946211	488.248184285211	315.694018931539	1018.755109217575	416.652877404520	308.955130831604	924.952866830131	303.954929825908	260.434333622326	975.246015787161	192.380149218933	332.364330928338	1128.333014368782	433.079553229131	553.647813777875	1016.028490692217	381.093487567052	621.559055924175	1011.517159448118	270.164435595626	574.429510884997	818.570430025542	187.371619828850	561.343181220506	995.014186530925	145.353389866942	589.032015531261	888.265817952920	130.722283872944	627.433143142642	1071.533908940665	37.864944794226	603.213731877838	846.188003239674	38.627429936422	381.451576072808	916.547547938422	34.711399580767	297.314497551256	1000.659612687944	95.959919029208	321.252180197010	1128.575891386557	43.815873413711	287.542212070377	989.151032788641	1092.948807760562	90.360912616468	1168.398946076208	899.502644197523	94.318205180230	939.380005681960	1103.827990455437	698.449319524964	990.687154819149	847.203569209109	699.100524778057	
6	12.146428571429	800.805637759569	1008.139502082925	433.474310331791	984.285633479909	1433.644900545161	235.259574138995	1084.456936562627	1368.828205239278	399.746656109037	998.989746746301	1444.557720497565	571.821368040943	963.048118642573	1499.051262791845	391.959282221583	1032.173907499562	950.912750170874	548.668636564557	1014.772659391257	965.232372542986	274.731832355023	1118.871395123455	782.845754970907	520.879373129271	1083.912714692254	661.508792517435	599.026981162839	1173.171415717129	624.090359227363	519.454654570860	1198.212135164157	516.977303609096	543.104374322710	1057.831743572128	749.486239860408	301.011504452592	962.158583997265	636.632600221801	245.581275033691	1045.181501295030	556.400318442449	305.623023771314	1042.440588200536	487.822035498792	316.186946900400	1014.195549592180	416.399115515654	309.192069558086	920.256533091009	303.921480134952	260.454682990743	970.147689753110	192.262437239276	332.474494540674	1133.318558523527	435.036441862827	554.302496518586	1023.651625346391	378.397788769555	622.594112750290	1023.751747055489	267.344232846851	575.490947515626	834.631748701923	176.033054404197	562.766860869171	1012.919129206698	142.328379946288	590.768896450020	906.847521262189	122.858858630608	629.039847878126	1093.952974929790	38.243439606793	604.748827665998	840.761951729486	38.593909783023	381.409849815862	911.138963932108	34.689343395756	297.277313924787	995.250867406628	95.940066560146	321.257224121166	1123.178175622687	43.809734066634	287.528941538465	995.463981928474	1094.221954227599	88.740666954668	1180.859023650785	906.541285781992	93.717895667052	929.605500763454	1105.808931169323	697.775399843123	976.076152823211	848.131614441393	699.905962281940	
